simulation
nRows=31
nColumns=15
endheader
time  TH_x TH_y TH_z SC_y  SC_z  SC_x  AC_y  AC_z  AC_x  GH_y  GH_z  GH_yy  EL_x  PS_y
0.000000  0.000000  0.000000  0.000000  -24.573561  3.445128  -1.993216  42.933830  10.616661  8.944164  20.458669  -1.916577  18.795296  20.457003  82.617647
0.029798  0.000000  0.000000  0.000000  -24.626223  3.436171  -1.888997  42.960365  10.757288  8.927842  20.503051  -2.154540  18.888040  20.704173  82.467767
0.059596  0.000000  0.000000  0.000000  -24.640679  3.432562  -1.864203  42.978979  10.810165  8.927404  20.526996  -2.247347  18.932435  20.782018  82.416467
0.089394  0.000000  0.000000  0.000000  -24.624784  3.435303  -1.905478  42.992814  10.789289  8.942132  20.522406  -2.200897  18.926759  20.710579  82.435933
0.119192  0.000000  0.000000  0.000000  -24.586391  3.445398  -1.998813  43.005251  10.708207  8.970835  20.481185  -2.021089  18.869290  20.509894  82.498349
0.148990  0.000000  0.000000  0.000000  -24.533354  3.463848  -2.130354  43.019705  10.580567  9.012439  20.395235  -1.713821  18.758306  20.200004  82.575900
0.178788  0.000000  0.000000  0.000000  -24.473526  3.491656  -2.285989  43.039613  10.419851  9.065675  20.256458  -1.284993  18.592085  19.800948  82.640770
0.208586  0.000000  0.000000  0.000000  -24.414762  3.529825  -2.450906  43.068439  10.239067  9.128754  20.056759  -0.740504  18.368905  19.332767  82.665145
0.238384  0.000000  0.000000  0.000000  -24.364915  3.579357  -2.612190  43.109295  10.052524  9.201291  19.788040  -0.086251  18.087044  18.815499  82.621207
0.268182  0.000000  0.000000  0.000000  -24.331839  3.641255  -2.755451  43.165387  9.873519  9.281806  19.442203  0.671865  17.744780  18.269185  82.481142
0.297980  0.000000  0.000000  0.000000  -24.323387  3.716521  -2.867701  43.239647  9.716296  9.369862  19.011152  1.527946  17.340391  17.713865  82.217135
0.327778  0.000000  0.000000  0.000000  -24.347000  3.806050  -2.934673  43.334741  9.593628  9.463729  18.487427  2.476004  16.870828  17.169865  81.806796
0.357576  0.000000  0.000000  0.000000  -24.403373  3.908977  -2.947818  43.446594  9.512907  9.560044  17.873944  3.508595  16.311440  16.662200  81.316097
0.387374  0.000000  0.000000  0.000000  -24.487714  4.023004  -2.900703  43.566038  9.475439  9.652219  17.182060  4.617091  15.619995  16.219691  80.882897
0.417172  0.000000  0.000000  0.000000  -24.595073  4.145795  -2.787185  43.683780  9.482543  9.733722  16.423378  5.792830  14.753756  15.871275  80.647145
0.446970  0.000000  0.000000  0.000000  -24.720499  4.275009  -2.599317  43.790758  9.534327  9.796680  15.609502  7.027149  13.669981  15.645886  80.748787
0.476768  0.000000  0.000000  0.000000  -24.859281  4.408263  -2.331664  43.877820  9.632583  9.835088  14.752107  8.311393  12.327171  15.571827  81.324914
0.506566  0.000000  0.000000  0.000000  -25.017955  4.541061  -1.986174  43.946474  9.780449  9.849898  13.866283  9.637190  10.742311  15.647517  82.377639
0.536364  0.000000  0.000000  0.000000  -25.218940  4.665920  -1.573399  44.013593  9.981672  9.850548  12.971949  10.996571  9.014974  15.829189  83.718494
0.566162  0.000000  0.000000  0.000000  -25.485857  4.775130  -1.105860  44.097137  10.240946  9.848094  12.089383  12.381598  7.250968  16.069887  85.144619
0.595960  0.000000  0.000000  0.000000  -25.842324  4.860983  -0.595992  44.215269  10.562865  9.853541  11.238866  13.784334  5.556100  16.322655  86.453152
0.625758  0.000000  0.000000  0.000000  -26.311917  4.915791  -0.056235  44.386443  10.951893  9.877966  10.440650  15.196833  4.036078  16.540578  87.441454
0.655556  0.000000  0.000000  0.000000  -26.900392  4.939467  0.505758  44.617410  11.403558  9.928173  9.703804  16.608895  2.757253  16.692856  87.993585
0.685354  0.000000  0.000000  0.000000  -27.568732  4.951029  1.100864  44.885728  11.886710  9.995295  9.009288  18.004644  1.687052  16.789191  88.211507
0.715152  0.000000  0.000000  0.000000  -28.270994  4.972452  1.743423  45.164764  12.365565  10.067647  8.333719  19.367330  0.777611  16.845545  88.230876
0.744949  0.000000  0.000000  0.000000  -28.961237  5.025709  2.443188  45.427285  12.807687  10.136745  7.653713  20.680200  -0.018936  16.877882  88.187347
0.774747  0.000000  0.000000  0.000000  -29.593519  5.132775  3.212989  45.646396  13.178849  10.191486  6.945885  21.926503  -0.750454  16.902165  88.216576
0.804545  0.000000  0.000000  0.000000  -30.130361  5.309223  4.059904  45.801007  13.455170  10.225314  6.187919  23.093291  -1.454527  16.934164  88.432117
0.834343  0.000000  0.000000  0.000000  -30.573938  5.540653  4.981343  45.901241  13.646166  10.243199  5.362511  24.185446  -2.120560  16.988749  88.843969
0.864141  0.000000  0.000000  0.000000  -30.938030  5.803889  5.971217  45.966139  13.771425  10.254158  4.453822  25.213063  -2.723861  17.080527  89.431832
0.893939  0.000000  0.000000  0.000000  -31.236418  6.075757  7.024341  46.014800  13.849549  10.266923  3.446012  26.186241  -3.239737  17.224104  90.175400
